<mxfile host="app.diagrams.net" modified="2020-06-21T05:50:56.031Z" agent="5.0 (Macintosh; Intel Mac OS X 10_15_5) AppleWebKit/537.36 (KHTML, like Gecko) Chrome/83.0.4103.97 Safari/537.36" etag="dsIJ36gA_Kj0k1lqiGzs" version="13.3.0" type="github">
  <diagram id="x6Iz0Q6umD8VMFiePIyy" name="Page-1">
    <mxGraphModel dx="1833" dy="1062" grid="1" gridSize="10" guides="1" tooltips="1" connect="1" arrows="1" fold="1" page="1" pageScale="1" pageWidth="827" pageHeight="1169" math="0" shadow="0">
      <root>
        <mxCell id="0" />
        <mxCell id="1" parent="0" />
        <mxCell id="Se6iuaZksfMQZ7NYqONI-1" value="AWS Cloud" style="points=[[0,0],[0.25,0],[0.5,0],[0.75,0],[1,0],[1,0.25],[1,0.5],[1,0.75],[1,1],[0.75,1],[0.5,1],[0.25,1],[0,1],[0,0.75],[0,0.5],[0,0.25]];outlineConnect=0;gradientColor=none;html=1;whiteSpace=wrap;fontSize=12;fontStyle=0;shape=mxgraph.aws4.group;grIcon=mxgraph.aws4.group_aws_cloud;strokeColor=#232F3E;fillColor=none;verticalAlign=top;align=left;spacingLeft=30;fontColor=#232F3E;dashed=0;" vertex="1" parent="1">
          <mxGeometry y="30" width="910" height="460" as="geometry" />
        </mxCell>
        <mxCell id="Se6iuaZksfMQZ7NYqONI-2" value="Your VPC" style="points=[[0,0],[0.25,0],[0.5,0],[0.75,0],[1,0],[1,0.25],[1,0.5],[1,0.75],[1,1],[0.75,1],[0.5,1],[0.25,1],[0,1],[0,0.75],[0,0.5],[0,0.25]];outlineConnect=0;gradientColor=none;html=1;whiteSpace=wrap;fontSize=12;fontStyle=0;shape=mxgraph.aws4.group;grIcon=mxgraph.aws4.group_vpc;strokeColor=#248814;fillColor=none;verticalAlign=top;align=left;spacingLeft=30;fontColor=#AAB7B8;dashed=0;" vertex="1" parent="1">
          <mxGeometry x="260" y="104" width="610" height="350" as="geometry" />
        </mxCell>
        <mxCell id="Se6iuaZksfMQZ7NYqONI-3" value="RDS Quicksight Access Security Group&lt;br&gt;SG-2" style="fontStyle=0;verticalAlign=top;align=center;spacingTop=-2;fillColor=none;rounded=0;whiteSpace=wrap;html=1;strokeColor=#FF0000;strokeWidth=2;dashed=1;container=1;collapsible=0;expand=0;recursiveResize=0;" vertex="1" parent="1">
          <mxGeometry x="609" y="179" width="200" height="200" as="geometry" />
        </mxCell>
        <mxCell id="Se6iuaZksfMQZ7NYqONI-4" value="" style="edgeStyle=orthogonalEdgeStyle;rounded=0;orthogonalLoop=1;jettySize=auto;html=1;startArrow=classic;startFill=1;" edge="1" parent="1" source="Se6iuaZksfMQZ7NYqONI-5" target="Se6iuaZksfMQZ7NYqONI-8">
          <mxGeometry relative="1" as="geometry" />
        </mxCell>
        <mxCell id="Se6iuaZksfMQZ7NYqONI-5" value="quicksight" style="outlineConnect=0;dashed=0;verticalLabelPosition=bottom;verticalAlign=top;align=center;html=1;shape=mxgraph.aws3.quicksight;fillColor=#00B7F4;gradientColor=none;" vertex="1" parent="1">
          <mxGeometry x="10" y="249" width="60" height="60" as="geometry" />
        </mxCell>
        <mxCell id="Se6iuaZksfMQZ7NYqONI-6" value="Your RDS instance" style="outlineConnect=0;fontColor=#232F3E;gradientColor=#4D72F3;gradientDirection=north;fillColor=#3334B9;strokeColor=#ffffff;dashed=0;verticalLabelPosition=bottom;verticalAlign=top;align=center;html=1;fontSize=12;fontStyle=0;aspect=fixed;shape=mxgraph.aws4.resourceIcon;resIcon=mxgraph.aws4.rds;" vertex="1" parent="1">
          <mxGeometry x="670" y="240" width="78" height="78" as="geometry" />
        </mxCell>
        <mxCell id="Se6iuaZksfMQZ7NYqONI-7" value="Network interface" style="outlineConnect=0;fontColor=#232F3E;gradientColor=none;fillColor=#5A30B5;strokeColor=none;dashed=0;verticalLabelPosition=bottom;verticalAlign=top;align=center;html=1;fontSize=12;fontStyle=0;aspect=fixed;pointerEvents=1;shape=mxgraph.aws4.elastic_network_interface;" vertex="1" parent="1">
          <mxGeometry x="220" y="240" width="78" height="78" as="geometry" />
        </mxCell>
        <mxCell id="Se6iuaZksfMQZ7NYqONI-8" value="Quicksight VPC Security Group&lt;br&gt;SG-1" style="fontStyle=0;verticalAlign=top;align=center;spacingTop=-2;fillColor=none;rounded=0;whiteSpace=wrap;html=1;strokeColor=#FF0000;strokeWidth=2;dashed=1;container=1;collapsible=0;expand=0;recursiveResize=0;" vertex="1" parent="1">
          <mxGeometry x="159" y="179" width="200" height="200" as="geometry" />
        </mxCell>
        <mxCell id="Se6iuaZksfMQZ7NYqONI-9" value="" style="edgeStyle=orthogonalEdgeStyle;rounded=0;orthogonalLoop=1;jettySize=auto;html=1;startArrow=classic;startFill=1;entryX=0;entryY=0.5;entryDx=0;entryDy=0;" edge="1" parent="1" target="Se6iuaZksfMQZ7NYqONI-3">
          <mxGeometry relative="1" as="geometry">
            <mxPoint x="359" y="278.5" as="sourcePoint" />
            <mxPoint x="448" y="278.5" as="targetPoint" />
          </mxGeometry>
        </mxCell>
        <mxCell id="Se6iuaZksfMQZ7NYqONI-10" value="" style="endArrow=none;dashed=1;html=1;entryX=0.25;entryY=1;entryDx=0;entryDy=0;" edge="1" parent="1" target="Se6iuaZksfMQZ7NYqONI-8">
          <mxGeometry width="50" height="50" relative="1" as="geometry">
            <mxPoint x="209" y="550" as="sourcePoint" />
            <mxPoint x="330" y="620" as="targetPoint" />
          </mxGeometry>
        </mxCell>
        <mxCell id="Se6iuaZksfMQZ7NYqONI-11" value="Inbound: All TPC, any port, Source: SG-2&lt;br&gt;&lt;br&gt;Outbound: Custom TPC, your RDS Port, destination SG-2" style="text;html=1;strokeColor=#000000;fillColor=none;align=left;verticalAlign=middle;whiteSpace=wrap;rounded=0;" vertex="1" parent="1">
          <mxGeometry x="130" y="550" width="330" height="100" as="geometry" />
        </mxCell>
        <mxCell id="Se6iuaZksfMQZ7NYqONI-12" value="" style="endArrow=none;dashed=1;html=1;entryX=0.25;entryY=1;entryDx=0;entryDy=0;" edge="1" parent="1">
          <mxGeometry width="50" height="50" relative="1" as="geometry">
            <mxPoint x="639" y="550" as="sourcePoint" />
            <mxPoint x="639" y="379" as="targetPoint" />
          </mxGeometry>
        </mxCell>
        <mxCell id="Se6iuaZksfMQZ7NYqONI-13" value="Inbound: Custom TCP, your RDS Port, Source: SG-1&lt;br&gt;&lt;br&gt;Outbound: All traffic, all, 0.0.0.0" style="text;html=1;strokeColor=#000000;fillColor=none;align=left;verticalAlign=middle;whiteSpace=wrap;rounded=0;" vertex="1" parent="1">
          <mxGeometry x="560" y="550" width="330" height="100" as="geometry" />
        </mxCell>
      </root>
    </mxGraphModel>
  </diagram>
</mxfile>
